<svg xmlns="http://www.w3.org/2000/svg" viewBox="0 0 268.52 281.2"><defs><style>.cls-1{fill:#ed1c24;}.cls-2{fill:#231f20;}</style></defs><title>GUFtlogo1.0</title><g id="Layer_2" data-name="Layer 2"><g id="Layer_1-2" data-name="Layer 1"><path class="cls-1" d="M70.63,144.08c-.39.93-.78,1.8-1.17,2.62l1.64-1.09Zm0,0c-.39.93-.78,1.8-1.17,2.62l1.64-1.09ZM39.94,77.64v88.74L55.4,156.07a5,5,0,0,1-1.18-1.31,1.59,1.59,0,0,1-.13-.22c-1.26-2.06-1.59-4.77-1.59-11V105.48c0-11.42,4-19.92,12-25.27s12.15-1.88,12.15,10.61c0,1.51,0,2.92-.17,5.83L68,102.3c.18-2.49.18-3.45.18-5.07,0-8-.81-9.58-3.81-7.57-2.72,1.82-3.44,3.92-3.44,10.17v38c0,5.28.09,6,.55,6.85.63,1.08,1.62,1.17,2.89.32a8.41,8.41,0,0,0,3.09-4.65c.45-1.5.54-2.63.54-7.26V122.78l-3.72,2.5v-8.52l12.16-8.14V142l7.25-4.84V68.41l8.43-5.65v68.83l7.27-4.84V57.88l20.39-13.67v9.37l-12,8V81.75l8.34-5.59v9.39l-8.34,5.59v30l7.56-5h34.39l2.34-1.57V2.45ZM140,46.08v9.09l-5.82,3.9V92.2c0,3.64,1.33,4.34,4.3,2.35L140,93.41v9.09a41.14,41.14,0,0,1-4.77,4c-6.11,4.1-9.36,2.29-9.36-5.31V64.64l-4,2.69V58.24l4-2.69V40.12l8.31-5.57V50ZM69.46,146.7l1.64-1.09-.47-1.53C70.24,145,69.85,145.88,69.46,146.7Zm45.23-7.31a.87.87,0,0,0-.28.19L39.94,189v.71l107.57-72.1Zm-44.06,4.69c-.39.93-.78,1.8-1.17,2.62l1.64-1.09Z"/><path class="cls-2" d="M99.39,124.35v2.4l8.43-5.62v-2.4Zm-15.7,10.46v2.4l8.43-5.62v-2.4Zm8.43-5.62v2.4l7.27-4.84v-2.4ZM76.44,139.64V142l7.25-4.84v-2.4Zm15.68-10.45-8.43,5.62v2.4l8.43-5.62,7.27-4.84v-2.4ZM181.92,19v2.4l18.59,12.4v-2.4ZM92.12,129.19l-8.43,5.62-7.25,4.83V142l7.25-4.84,8.43-5.62,7.27-4.84,8.43-5.62v-2.4l-8.43,5.62ZM76.44,139.64V142l7.25-4.84v-2.4Zm15.68-10.45v2.4l7.27-4.84v-2.4Zm-8.43,5.62v2.4l8.43-5.62v-2.4Zm15.7-10.46v2.4l8.43-5.62v-2.4Zm-7.27,4.84-8.43,5.62-7.25,4.83V142l7.25-4.84,8.43-5.62,7.27-4.84v-2.4Z"/><path class="cls-2" d="M267.36,166.78a1,1,0,0,0,.71-1.82l-37.74-25L230,52.25a1,1,0,0,0-.27-1.36L200.51,31.41v2.4L228,52.14l.32,86.43-27.81-18.46-8.8-5.84a.94.94,0,0,0-.32-.15l-.26,0h-37V2.87l27.81,18.54V19L153.93.35,153.7.19l-.12-.07a.7.7,0,0,0-.2-.08h0a.67.67,0,0,0-.24,0,1,1,0,0,0-.29,0,.91.91,0,0,0-.21.08l-.09.06-114.06,76-.08,0a1,1,0,0,0-.26.32A.89.89,0,0,0,38,77v88.27L.46,190.3l-.08,0a1.22,1.22,0,0,0-.27.33,1,1,0,0,0-.11.38,1.1,1.1,0,0,0,0,.4,1.24,1.24,0,0,0,.16.3,1.22,1.22,0,0,0,.33.27,1,1,0,0,0,.39.11H1l35.57-.3L.31,228.13l-.09.09a1.12,1.12,0,0,0-.16.28A1.17,1.17,0,0,0,0,229a1.22,1.22,0,0,0,.14.42,1.32,1.32,0,0,0,.22.25l.1.07,76,50.91a1,1,0,0,0,1.39-.27A1.19,1.19,0,0,0,78,280l37-37.35,37.31,38.26.21.17a1,1,0,0,0,.41.13h.11a1,1,0,0,0,.34-.06,1,1,0,0,0,.23-.12l114.05-76,.09-.06a1.05,1.05,0,0,0,.37-.68,1.09,1.09,0,0,0-.06-.44,1.18,1.18,0,0,0-.16-.29l-.08-.09-36.33-36.63h35.8ZM76.79,278.39,2.57,228.7l36.58-36.6,74.36,49.26Zm37.9-139a.87.87,0,0,0-.28.19L39.94,189l-1.23.82-34.37.29,35.22-23.48,0,0,.35-.23L55.4,156.07l14.06-9.37,1.64-1.09L76.44,142v-2.41l-22.35,14.9L40,163.92V77.6L152.11,2.87V114.09h-37a1.35,1.35,0,0,0-.28,0,.83.83,0,0,0-.3.14l-6.69,4.46v2.4l7.56-5h34.41l-2.28,1.52ZM265.62,204,153.25,278.91l-36.61-37.54L229,167.08Zm-36.16-39.19-29-19.3L181.92,133.1l-25.51-17h34.43l9.67,6.42,63.7,42.28Z"/><path class="cls-1" d="M200.51,31.41v88.7l-8.8-5.84a.94.94,0,0,0-.32-.15l-.26,0h-9.21V19Z"/></g></g></svg>